<?xml version="1.0" standalone="no"?>
<!DOCTYPE svg PUBLIC "-//W3C//DTD SVG 20010904//EN"
 "http://www.w3.org/TR/2001/REC-SVG-20010904/DTD/svg10.dtd">
<svg version="1.0" xmlns="http://www.w3.org/2000/svg"
 width="500.000000pt" height="500.000000pt" viewBox="0 0 500.000000 500.000000"
 preserveAspectRatio="xMidYMid meet">
<metadata>
Created by potrace 1.14, written by Peter Selinger 2001-2017
</metadata>
<g transform="translate(0.000000,500.000000) scale(0.100000,-0.100000)"
fill="#000000" stroke="none">
<path d="M2015 4409 c-38 -3 -95 -13 -126 -23 -131 -39 -292 -173 -399 -331
-49 -73 -110 -182 -110 -197 0 -14 59 -38 93 -38 44 0 57 12 102 95 97 181
211 289 354 339 62 21 94 26 174 26 154 0 288 -52 446 -172 45 -34 89 -67 96
-72 19 -14 45 1 45 26 0 26 -98 126 -190 195 -59 44 -181 110 -245 132 -54 19
-155 27 -240 20z"/>
<path d="M1940 4207 c-124 -42 -210 -119 -270 -242 -68 -143 -64 -162 48 -190
56 -15 70 -15 154 0 162 28 250 45 260 52 6 3 27 10 47 15 172 44 225 47 305
18 107 -40 169 -144 182 -302 10 -124 11 -125 62 -88 47 34 48 37 26 111 -100
330 -226 506 -429 599 -122 55 -269 66 -385 27z"/>
<path d="M2737 3969 c-15 -23 -27 -48 -25 -56 2 -9 105 -68 238 -135 l235
-120 64 32 c80 40 88 32 -149 147 -220 107 -268 132 -302 155 -14 10 -28 18
-30 18 -1 -1 -16 -19 -31 -41z"/>
<path d="M2329 3786 c-31 -12 -69 -32 -85 -43 -28 -19 -199 -104 -274 -136
-160 -68 -342 -93 -472 -66 -60 13 -173 61 -200 86 -10 9 -21 13 -25 10 -19
-19 52 -214 89 -245 8 -6 56 -21 108 -32 109 -25 250 -23 380 5 70 15 120 32
355 116 105 38 131 35 182 -16 28 -28 33 -40 33 -79 0 -94 -87 -207 -202 -264
-183 -89 -278 -112 -499 -119 l-176 -6 29 -59 c19 -40 36 -62 55 -69 17 -6
105 -9 224 -7 l196 3 44 39 c76 68 212 191 223 202 6 6 61 50 121 98 61 48
126 100 145 116 l35 28 4 125 c4 147 -12 217 -61 272 -59 68 -133 81 -229 41z"/>
<path d="M2145 3786 c-245 -64 -277 -70 -430 -70 -161 0 -228 11 -307 50 -80
40 -113 30 -125 -39 -7 -43 9 -55 110 -87 120 -39 330 -43 436 -9 74 24 206
80 321 136 71 35 70 38 -5 19z"/>
<path d="M2812 3718 c29 -40 64 -86 78 -101 l26 -28 88 14 c48 8 92 19 97 24
6 6 -14 20 -53 38 -35 15 -110 50 -167 77 -57 26 -108 48 -113 48 -4 0 15 -33
44 -72z"/>
<path d="M3630 3728 c-231 -31 -303 -55 -576 -189 -220 -108 -361 -199 -574
-370 -164 -132 -437 -375 -429 -383 7 -8 221 -66 240 -66 10 0 69 43 131 96
149 127 140 120 243 195 97 71 273 189 282 189 3 0 17 9 32 19 36 26 249 132
331 166 188 76 321 105 486 105 115 -1 190 -14 283 -51 222 -89 404 -320 477
-609 20 -79 44 -281 44 -376 0 -189 -53 -410 -140 -579 l-41 -80 7 -120 c11
-189 6 -184 101 -90 209 208 323 514 323 870 0 208 -44 433 -115 590 -7 17
-25 55 -38 85 -92 201 -274 397 -467 503 -158 86 -394 124 -600 95z"/>
<path d="M2250 3441 c-36 -21 -294 -102 -385 -122 -119 -25 -355 -31 -418 -10
-21 7 -41 10 -44 7 -3 -3 13 -44 36 -92 24 -48 47 -97 51 -110 18 -46 46 -54
201 -55 209 -1 326 23 486 103 102 51 150 90 174 142 25 55 24 79 -7 115 -26
31 -63 40 -94 22z"/>
<path d="M3890 3370 c38 -34 70 -64 70 -68 0 -4 16 -24 34 -46 59 -67 114
-192 162 -363 8 -29 21 -77 29 -105 63 -231 114 -441 134 -553 32 -186 45
-256 56 -310 l11 -60 33 64 c42 81 79 196 92 286 18 114 23 370 9 454 -45 284
-167 517 -335 641 -91 67 -237 120 -328 120 l-38 0 71 -60z"/>
<path d="M3495 3370 c-180 -50 -395 -139 -395 -162 0 -12 24 -10 217 18 299
44 489 27 615 -52 47 -30 56 -27 28 9 -11 14 -20 29 -20 34 0 9 -64 78 -101
108 -99 81 -180 92 -344 45z"/>
<path d="M3396 3155 c-112 -33 -152 -53 -165 -82 -72 -158 -113 -766 -74
-1101 6 -51 7 -52 47 -63 116 -32 264 -83 305 -106 87 -48 211 -145 194 -150
-5 -2 -68 19 -139 46 -71 27 -167 60 -214 74 -246 72 -242 72 -229 5 19 -98 4
-252 -37 -378 -20 -60 -98 -214 -136 -266 -17 -23 -27 -47 -24 -52 9 -15 129
-82 222 -124 106 -48 469 -168 508 -168 23 0 43 12 76 43 217 209 347 497 394
877 49 390 39 655 -35 937 -73 278 -193 452 -354 512 -80 30 -231 28 -339 -4z"/>
<path d="M2895 3073 c-219 -150 -317 -224 -386 -293 -122 -121 -119 -94 -43
-315 36 -104 69 -203 74 -220 4 -16 16 -51 25 -77 16 -46 19 -48 83 -69 37
-12 81 -24 98 -29 l31 -7 6 156 c8 195 35 347 101 576 21 73 82 254 100 298
22 51 9 48 -89 -20z"/>
<path d="M3073 3058 c-5 -7 -17 -33 -27 -58 -11 -25 -24 -58 -32 -75 -37 -88
-79 -234 -118 -410 -21 -95 -38 -301 -34 -405 l3 -85 60 -22 c98 -36 90 -53
87 199 -3 196 15 501 33 568 3 8 10 56 16 105 6 50 14 114 18 143 8 57 8 58
-6 40z"/>
<path d="M1426 2823 c-21 -54 -42 -109 -47 -123 -32 -88 -66 -309 -55 -356 l7
-27 25 34 c93 127 194 237 329 357 l59 52 -70 1 c-38 0 -87 6 -108 12 -36 11
-42 18 -64 72 -13 33 -27 64 -32 68 -4 5 -24 -36 -44 -90z"/>
<path d="M1841 2727 c-13 -6 -30 -22 -39 -34 -13 -21 -12 -23 14 -34 16 -6 74
-22 129 -36 100 -25 125 -36 112 -50 -8 -7 -76 5 -220 39 -74 17 -92 18 -117
8 -32 -13 -60 -45 -60 -67 0 -7 57 -30 130 -53 72 -23 128 -45 125 -51 -9 -14
-42 -11 -145 16 -124 32 -160 32 -199 -1 -42 -35 -39 -51 12 -65 23 -6 62 -17
87 -24 25 -7 64 -18 88 -24 54 -15 51 -37 -4 -33 -21 2 -72 12 -111 23 -121
32 -164 24 -189 -36 -13 -32 -20 -105 -9 -105 2 0 15 5 29 11 27 13 77 1 191
-46 53 -22 66 -33 105 -91 111 -164 287 -304 382 -304 62 0 138 47 231 143 42
44 77 77 77 73 0 -26 -112 -215 -156 -262 l-52 -57 72 -106 c40 -58 121 -177
179 -263 158 -233 161 -237 173 -238 6 0 37 19 70 41 144 101 233 232 270 399
19 86 22 289 5 333 -11 28 -27 37 -231 129 -30 14 -102 45 -160 68 -58 24
-110 48 -116 54 -7 6 -60 127 -118 268 -59 142 -111 269 -117 282 -13 28 -29
33 -244 76 -172 34 -163 34 -194 17z"/>
<path d="M1390 2069 c-38 -34 -269 -249 -308 -288 -31 -30 -25 -33 98 -56 185
-34 151 -46 348 125 95 82 173 153 174 157 3 15 -77 60 -138 76 -92 26 -133
22 -174 -14z"/>
<path d="M834 1965 c-17 -9 -46 -29 -64 -44 l-34 -28 18 -94 c42 -228 44 -233
94 -225 25 5 48 19 70 43 30 34 32 41 32 109 l0 74 28 -6 c23 -5 37 3 86 48
l59 54 -79 38 c-92 45 -162 55 -210 31z"/>
<path d="M1582 1790 c-114 -109 -111 -101 -91 -232 6 -40 13 -88 16 -106 4
-31 11 -37 71 -64 37 -17 91 -41 120 -54 29 -13 54 -24 57 -24 2 0 38 -16 79
-35 75 -34 96 -41 96 -29 0 3 -11 33 -24 67 -13 34 -52 139 -86 232 -33 94
-67 186 -75 205 -7 19 -21 57 -31 83 -9 26 -20 49 -23 52 -4 2 -52 -41 -109
-95z"/>
<path d="M649 1812 c-73 -65 -75 -72 -45 -193 35 -140 44 -159 70 -159 28 0
64 33 72 66 6 25 -32 286 -46 312 -4 9 -19 2 -51 -26z"/>
<path d="M1850 1783 c4 -16 12 -39 18 -53 6 -14 32 -81 58 -150 25 -69 52
-138 59 -155 108 -264 94 -246 205 -265 30 -5 91 -16 135 -25 161 -30 159 -30
152 -13 -5 15 -274 418 -320 480 -11 15 -45 40 -76 55 -63 31 -151 89 -195
127 -37 33 -47 33 -36 -1z"/>
<path d="M498 1661 c-32 -38 -32 -89 0 -256 6 -34 12 -40 34 -43 63 -7 74 93
28 248 -22 73 -34 83 -62 51z"/>
<path d="M1009 1575 c-62 -42 -117 -83 -122 -91 -5 -8 -7 -27 -5 -42 3 -25 7
-27 53 -30 45 -3 126 13 178 33 16 7 17 4 11 -21 -4 -16 -12 -40 -19 -54 -7
-14 -15 -37 -19 -52 -4 -20 -33 -43 -121 -99 -63 -40 -113 -74 -111 -76 12
-12 130 -32 190 -33 64 0 75 3 135 40 36 22 77 48 91 58 l24 17 -19 -35 c-28
-48 -94 -111 -140 -135 -22 -10 -42 -20 -44 -22 -2 -1 25 -60 59 -130 34 -70
73 -152 87 -180 14 -29 30 -53 37 -54 70 -6 216 36 302 86 72 42 138 108 172
173 32 61 62 177 62 239 0 38 0 38 -73 66 -39 16 -81 33 -92 38 -11 4 -56 22
-100 39 -135 51 -118 33 -185 207 -25 64 -38 84 -58 92 -37 15 -139 41 -161
41 -10 0 -69 -34 -132 -75z"/>
<path d="M4251 1518 c-55 -155 -82 -221 -147 -351 -71 -142 -143 -246 -274
-397 -26 -30 -57 -66 -68 -80 -18 -22 -28 -25 -74 -23 -92 3 -399 93 -484 142
-11 6 -59 29 -109 52 -49 23 -123 56 -163 75 l-73 34 -77 -20 c-77 -20 -148
-26 -168 -12 -6 4 -34 40 -63 80 l-53 72 -185 0 c-172 0 -185 -1 -179 -17 13
-35 198 -362 209 -371 12 -9 63 -18 252 -47 77 -12 401 -31 600 -35 45 -1
-109 -61 -190 -75 -22 -3 -47 -10 -55 -16 -10 -6 74 -8 245 -4 143 3 443 9
666 13 337 6 409 10 425 22 45 35 120 96 132 107 7 7 40 33 73 58 32 26 59 50
59 55 0 5 -32 52 -71 104 l-71 95 -49 -60 c-60 -72 -133 -131 -211 -170 -81
-41 -97 -39 -60 9 16 20 68 97 115 170 79 123 86 138 93 200 8 80 -2 417 -14
439 -6 11 -15 -3 -31 -49z"/>
<path d="M386 1487 c-20 -29 -23 -67 -12 -149 10 -80 28 -94 65 -52 25 30 25
58 1 172 -13 57 -30 67 -54 29z"/>
<path d="M602 1338 c-36 -35 -71 -67 -78 -73 -6 -5 -70 -66 -143 -134 l-133
-125 35 -18 c41 -20 77 -63 77 -89 0 -41 12 -34 150 85 14 11 68 57 120 101
52 44 97 82 100 85 3 3 48 41 100 85 l95 80 -40 3 c-54 3 -122 21 -167 44 -21
10 -40 18 -43 18 -4 0 -37 -28 -73 -62z"/>
<path d="M338 1257 c-3 -19 -2 -25 4 -19 6 6 8 18 6 28 -3 14 -5 12 -10 -9z"/>
<path d="M205 1150 c3 -5 10 -10 16 -10 5 0 9 5 9 10 0 6 -7 10 -16 10 -8 0
-12 -4 -9 -10z"/>
<path d="M1889 1023 c-20 -94 -58 -162 -129 -234 -36 -36 -95 -83 -134 -104
l-68 -38 33 -15 c53 -23 244 -22 287 1 47 26 107 91 130 140 30 65 52 126 52
144 0 17 -137 163 -152 163 -3 0 -12 -26 -19 -57z"/>
<path d="M912 929 c62 -50 125 -103 140 -117 15 -14 30 -23 33 -20 7 6 -69
186 -84 201 -12 12 -90 26 -154 26 l-49 1 114 -91z"/>
<path d="M220 938 c0 -44 13 -69 43 -85 29 -14 31 -14 44 3 18 23 9 72 -15 90
-9 7 -29 14 -44 14 -22 0 -28 -5 -28 -22z"/>
<path d="M760 951 c0 -13 29 -35 37 -28 7 8 -15 37 -28 37 -5 0 -9 -4 -9 -9z"/>
<path d="M2116 815 c-7 -27 -104 -175 -143 -216 l-24 -26 62 -7 c126 -13 133
-11 178 43 23 27 41 54 41 61 0 7 -18 39 -40 72 -22 33 -40 64 -40 68 0 4 -6
13 -14 19 -11 9 -15 6 -20 -14z"/>
<path d="M1402 601 c-9 -5 -3 -8 17 -9 17 0 31 4 31 9 0 11 -30 12 -48 0z"/>
</g>
</svg>
